<svg width="63" height="52" viewBox="0 0 63 52" fill="none" xmlns="http://www.w3.org/2000/svg">
<g filter="url(#filter0_d_1570_3)">
<path d="M7.79325 3.79325C8.28336 3.30314 8.96045 3 9.70833 3H53.0417C53.7896 3 54.4666 3.30314 54.9567 3.79325M7.79325 3.79325C7.30314 4.28336 7 4.96045 7 5.70833V38.2083C7 39.7041 8.21256 40.9167 9.70833 40.9167H53.0417C54.5374 40.9167 55.75 39.7041 55.75 38.2083V5.70833C55.75 4.96045 55.4469 4.28336 54.9567 3.79325M7.79325 3.79325L27.5448 23.5447C29.6602 25.66 33.0898 25.6601 35.2052 23.5447L54.9567 3.79325" stroke="#C0B7E8" stroke-width="6" stroke-linecap="round" stroke-linejoin="round" shape-rendering="crispEdges"/>
</g>
<defs>
<filter id="filter0_d_1570_3" x="0" y="0" width="62.75" height="51.9167" filterUnits="userSpaceOnUse" color-interpolation-filters="sRGB">
<feFlood flood-opacity="0" result="BackgroundImageFix"/>
<feColorMatrix in="SourceAlpha" type="matrix" values="0 0 0 0 0 0 0 0 0 0 0 0 0 0 0 0 0 0 127 0" result="hardAlpha"/>
<feOffset dy="4"/>
<feGaussianBlur stdDeviation="2"/>
<feComposite in2="hardAlpha" operator="out"/>
<feColorMatrix type="matrix" values="0 0 0 0 0 0 0 0 0 0 0 0 0 0 0 0 0 0 0.25 0"/>
<feBlend mode="normal" in2="BackgroundImageFix" result="effect1_dropShadow_1570_3"/>
<feBlend mode="normal" in="SourceGraphic" in2="effect1_dropShadow_1570_3" result="shape"/>
</filter>
</defs>
</svg>
