<svg width="51" height="51" viewBox="0 0 51 51" fill="none" xmlns="http://www.w3.org/2000/svg">
<path d="M31.271 11.6044C33.0832 11.958 34.8821 12.7572 36.1877 14.0628C37.4932 15.3683 38.2924 17.1673 38.646 18.9794M32.5002 3.00027C36.2652 3.41854 39.6532 5.23999 42.3335 7.91694C45.0138 10.5939 46.8272 13.9858 47.2502 17.7503M47.2488 36.1304V42.7919C47.2592 45.3384 44.9695 47.4648 42.3985 47.2329C20.2087 47.2503 3.00032 29.8821 3.01769 7.84119C2.78614 5.28394 4.90203 3.00288 7.44525 3.00049H14.12C15.1997 2.98988 16.2465 3.37149 17.0652 4.07418C19.3928 6.07195 20.8899 12.8527 20.3139 15.5483C19.8642 17.6528 17.7427 19.1252 16.3004 20.5647C19.4677 26.1238 24.0797 30.7267 29.6498 33.8877C31.0921 32.4482 32.5674 30.331 34.6761 29.8821C37.3812 29.3063 44.2056 30.8056 46.1954 33.1494C46.901 33.9805 47.2759 35.0414 47.2488 36.1304Z" stroke="#C0B7E8" stroke-width="6" stroke-linecap="round" stroke-linejoin="round"/>
</svg>
